<?xml version="1.0" encoding="UTF-8" standalone="no"?>
<!-- Created with Inkscape (http://www.inkscape.org/) -->

<svg
   width="163.2227mm"
   height="53.385963mm"
   viewBox="0 0 163.2227 53.385963"
   version="1.1"
   id="svg5"
   xml:space="preserve"
   inkscape:version="1.2.2 (732a01da63, 2022-12-09)"
   sodipodi:docname="adnova.svg"
   xmlns:inkscape="http://www.inkscape.org/namespaces/inkscape"
   xmlns:sodipodi="http://sodipodi.sourceforge.net/DTD/sodipodi-0.dtd"
   xmlns="http://www.w3.org/2000/svg"
   xmlns:svg="http://www.w3.org/2000/svg"><sodipodi:namedview
     id="namedview7"
     pagecolor="#505050"
     bordercolor="#eeeeee"
     borderopacity="1"
     inkscape:showpageshadow="0"
     inkscape:pageopacity="0"
     inkscape:pagecheckerboard="0"
     inkscape:deskcolor="#505050"
     inkscape:document-units="mm"
     showgrid="false"
     inkscape:zoom="1.0456808"
     inkscape:cx="-643.1217"
     inkscape:cy="384.91671"
     inkscape:window-width="1920"
     inkscape:window-height="991"
     inkscape:window-x="-9"
     inkscape:window-y="-9"
     inkscape:window-maximized="1"
     inkscape:current-layer="layer1" /><defs
     id="defs2"><rect
       x="-731.58081"
       y="510.67209"
       width="364.35593"
       height="132.92776"
       id="rect15097" /><rect
       x="-1251.816"
       y="380.67261"
       width="533.62366"
       height="226.58728"
       id="rect354" /></defs><g
     inkscape:label="Capa 1"
     inkscape:groupmode="layer"
     id="layer1"
     transform="translate(263.40592,-100.71962)"><path
       d="m -242.03593,151.45344 c -0.34279,-0.61846 -1.45153,-2.49369 -2.46386,-4.16718 -3.894,-6.43717 -17.11867,-29.22238 -17.11867,-29.49432 0,-0.0673 0.68461,0.27356 1.52136,0.75751 0.83674,0.48394 2.77151,1.54013 4.29948,2.34707 2.49941,1.31996 6.47471,3.52837 12.96458,7.20222 3.28365,1.85885 3.06733,1.4981 2.8869,4.81436 -0.59886,11.00727 -1.17506,19.66482 -1.30878,19.66482 -0.0868,0 -0.43822,-0.50601 -0.78101,-1.12448 z m 2.47746,-1.16713 c 0.0877,-1.28623 0.27895,-4.30313 0.42499,-6.70422 0.14605,-2.40109 0.38542,-6.18376 0.53195,-8.40592 0.14652,-2.22217 0.26641,-4.28839 0.26641,-4.59161 0,-0.52824 0.0913,-0.54399 2.18281,-0.37667 9.01208,0.72099 20.40753,1.80464 23.34948,2.22044 l 1.32292,0.18697 -2.8057,1.97767 c -1.54314,1.08771 -5.05548,3.59057 -7.80521,5.56191 -5.33776,3.28969 -10.6605,7.37075 -15.01748,10.56582 l -2.60963,1.90424 z m 5.45668,0.0547 c 0,-0.0574 2.35149,-1.75664 5.22552,-3.77608 2.87404,-2.01944 8.20162,-5.79075 11.83907,-8.3807 3.63746,-2.58994 7.44667,-5.19555 8.46493,-5.79024 1.85427,-1.08295 8.07642,-3.97745 8.22682,-3.82705 0.044,0.044 -6.47805,4.30359 -14.49339,9.4658 -8.01534,5.16222 -15.62851,10.06688 -16.91815,10.89925 -1.28964,0.83237 -2.3448,1.46643 -2.3448,1.40902 z m 19.35949,-19.9987 c -1.0667,-0.11186 -3.15029,-0.28147 -4.6302,-0.37691 -3.66536,-0.23638 -17.93275,-1.6918 -18.10382,-1.84678 4.4337,-4.43385 8.98167,-8.95842 13.14697,-13.36928 0.0822,0.004 1.39959,1.50022 2.92756,3.32552 2.72714,3.25782 6.42028,7.61963 9.22045,10.88987 l 1.41524,1.65282 -1.01837,-0.0359 c -0.5601,-0.0198 -1.89112,-0.12745 -2.95783,-0.23931 z m 5.43297,-1.37841 c -0.30975,-3.39616 -1.25512,-12.2538 -1.35546,-12.7 -0.0573,-0.25466 -0.0442,-0.46302 0.0292,-0.46302 0.45,0 11.72342,9.38683 11.72342,9.76153 0,0.18076 -9.72999,5.05981 -10.08408,5.0566 -0.0892,-7.9e-4 -0.23009,-0.74561 -0.31304,-1.65511 z m -36.06081,-4.37798 c -7.90759,-4.21311 -14.15683,-7.80918 -13.93283,-8.01752 0.51947,-0.48316 17.72945,-5.9462 17.97103,-5.70462 0.13072,0.13072 0.40873,2.92075 1.00607,10.09647 0.23016,2.7649 0.47161,5.35451 0.53654,5.75469 0.0649,0.40018 0.0317,0.72204 -0.0738,0.71525 -0.1055,-0.007 -2.58367,-1.28672 -5.50705,-2.84427 z m 32.6996,1.12487 c -6.07783,-6.9096 -7.44164,-8.47329 -8.6805,-9.95262 l -1.40445,-1.67708 2.94099,-0.22847 c 1.61755,-0.12566 3.92597,-0.14642 5.12983,-0.0461 l 2.18884,0.18233 0.72961,6.61546 c 0.40129,3.6385 0.6894,6.64817 0.64025,6.68817 -0.0491,0.04 -0.7442,-0.67175 -1.54457,-1.58165 z m -25.66458,0.79269 c 0,-0.15041 -0.29629,-3.60229 -0.65842,-7.67085 -0.36212,-4.06856 -0.65978,-7.76316 -0.66146,-8.21022 l -0.003,-0.81285 4.29948,1.10299 c 6.8969,1.76932 9.72344,2.613 9.72344,2.90229 0,0.14871 -2.8575,3.12602 -6.35,6.61625 -3.4925,3.49022 -6.35,6.2228 -6.35,6.07239 z m 34.52812,-7.31221 c -2.73886,-2.23116 -4.25534,-3.50768 -6.38509,-5.37477 l -0.90541,-0.79375 0.43124,-1.45521 c 0.53325,-1.79949 0.57376,-1.84128 1.12267,-1.15821 0.24471,0.30453 2.3321,2.90026 4.63864,5.76831 2.30654,2.86805 4.15201,5.25285 4.10104,5.29958 -0.051,0.0467 -1.40236,-0.98196 -3.00309,-2.28595 z m -58.74655,-4.38199 c -0.0957,-0.69155 -0.32658,-2.25178 -0.51314,-3.46718 l -0.33921,-2.20981 0.83802,-0.35015 c 0.46092,-0.19259 2.6788,-0.84418 4.92862,-1.44798 2.24983,-0.60381 4.65614,-1.25449 5.34737,-1.44596 0.69122,-0.19147 1.25677,-0.31663 1.25677,-0.27814 0,0.25457 -10.22344,9.82982 -10.89777,10.20682 -0.3836,0.21447 -0.47129,0.0721 -0.62066,-1.0076 z m 4.37468,-0.20105 c 0,-0.0377 2.05383,-1.95003 4.56406,-4.24952 2.51023,-2.29948 4.94561,-4.53412 5.41194,-4.96586 0.75855,-0.70228 0.90093,-0.74589 1.3515,-0.414 3.80527,2.80305 5.03375,3.79825 4.91861,3.98455 -0.0758,0.12259 -0.27451,0.22289 -0.44166,0.22289 -0.16714,0 -1.5591,0.47208 -3.09324,1.04905 -3.20174,1.20415 -12.71121,4.47558 -12.71121,4.37289 z m 28.44271,-3.93337 c -7.75577,-2.05668 -9.32826,-2.51302 -10.21574,-2.96462 -0.51664,-0.2629 -4.80234,-3.35887 -5.48944,-3.96556 -0.0521,-0.046 0.4766,-0.74548 1.17494,-1.55436 l 1.2697,-1.47069 h 4.81952 4.81951 l 6.99889,1.86507 c 6.85537,1.82683 7.07545,1.90686 10.73308,3.90261 2.0538,1.12064 3.7375,2.16474 3.74155,2.32023 0.004,0.15549 -0.17061,0.88202 -0.38814,1.6145 l -0.3955,1.33179 -2.44877,0.16743 c -1.34682,0.0921 -3.75846,0.22819 -5.35919,0.30246 l -2.91041,0.13505 z m -27.1198,-5.44789 c 0,-0.0951 0.56555,-0.36012 1.25678,-0.58881 0.69122,-0.2287 3.12938,-1.07214 5.41813,-1.87432 3.416,-1.19726 4.11393,-1.36987 3.89654,-0.96367 -0.14565,0.27216 -0.49167,0.61624 -0.76893,0.76462 -0.75736,0.40533 -9.80252,2.86182 -9.80252,2.66218 z"
       style="fill:#ffffff;fill-opacity:1;stroke-width:0.264583"
       id="path236"
       sodipodi:nodetypes="ssssssssssssssscscccsssssssssssccssccssccssscccsssscccsscsccsssscsccsssccsscssscssscssssssssscsssssssscccsscscsscsssssss"
       inkscape:export-filename="..\Pictures\adnova.svg"
       inkscape:export-xdpi="300"
       inkscape:export-ydpi="300" /><text
       xml:space="preserve"
       transform="matrix(0.38671984,0,0,0.38671984,235.77513,-45.870659)"
       id="text352"
       style="font-style:normal;font-variant:normal;font-weight:bold;font-stretch:normal;font-size:64px;font-family:'Times New Roman';-inkscape-font-specification:'Times New Roman, Bold';font-variant-ligatures:normal;font-variant-caps:normal;font-variant-numeric:normal;font-variant-east-asian:normal;text-align:center;white-space:pre;shape-inside:url(#rect354);display:inline;fill:#ffffff;fill-opacity:1"><tspan
         x="-1102.332"
         y="437.2055"
         id="tspan15163">ADNova
</tspan></text><text
       xml:space="preserve"
       transform="matrix(0.26458333,0,0,0.26458333,-9.6149484,-8.1527672)"
       id="text15095"
       style="font-style:normal;font-variant:normal;font-weight:bold;font-stretch:normal;font-size:64px;font-family:'Times New Roman';-inkscape-font-specification:'Times New Roman, Bold';font-variant-ligatures:normal;font-variant-caps:normal;font-variant-numeric:normal;font-variant-east-asian:normal;text-align:center;white-space:pre;shape-inside:url(#rect15097);display:inline;fill:#ffffff;fill-opacity:1"><tspan
         x="-684.22977"
         y="593.11671"
         id="tspan15167"><tspan
           style="font-size:93.3333px"
           id="tspan15165">Design</tspan></tspan></text></g></svg>
